<?xml version="1.0" encoding="UTF-8" standalone="no"?>
<!DOCTYPE svg PUBLIC "-//W3C//DTD SVG 1.1//EN" "http://www.w3.org/Graphics/SVG/1.1/DTD/svg11.dtd">
<!-- 由 Microsoft Visio, SVG Export 生成 figure.svg 页-1 -->
<svg xmlns="http://www.w3.org/2000/svg" xmlns:xlink="http://www.w3.org/1999/xlink" xmlns:ev="http://www.w3.org/2001/xml-events"
		xmlns:v="http://schemas.microsoft.com/visio/2003/SVGExtensions/" width="11.1906in" height="3.42938in"
		viewBox="0 0 805.726 246.915" xml:space="preserve" color-interpolation-filters="sRGB" class="st30">
	<v:documentProperties v:langID="2052" v:metric="true" v:viewMarkup="false"/>

	<style type="text/css">
	<![CDATA[
		.st1 {fill:none;stroke:none;stroke-linecap:round;stroke-linejoin:round;stroke-width:0.75}
		.st2 {fill:#d35400;font-family:Times New Roman;font-size:1.99999em;font-weight:bold}
		.st3 {fill:url(#grad0-7);stroke:none;stroke-linecap:round;stroke-linejoin:round;stroke-width:0.24}
		.st4 {fill:#3498db;stroke:none;stroke-linecap:butt;stroke-width:1.19531}
		.st5 {fill:#ffffff;stroke:#3498db;stroke-linecap:round;stroke-linejoin:round;stroke-width:2.25}
		.st6 {fill:#3498db;font-family:Symbol;font-size:1.00001em}
		.st7 {font-size:1em}
		.st8 {font-family:Times New Roman;font-size:1em}
		.st9 {fill:#3498db;stroke:#3498db;stroke-linecap:round;stroke-linejoin:round;stroke-width:1.5}
		.st10 {fill:#ffffff;font-family:Times New Roman;font-size:1.16666em;font-weight:bold}
		.st11 {fill:#2ecc71;stroke:none;stroke-linecap:butt;stroke-width:1.19531}
		.st12 {fill:#ffffff;stroke:#2ecc71;stroke-linecap:round;stroke-linejoin:round;stroke-width:2.25}
		.st13 {fill:#2ecc71;font-family:Symbol;font-size:1.00001em}
		.st14 {fill:#2ecc71;stroke:#2ecc71;stroke-linecap:round;stroke-linejoin:round;stroke-width:1.5}
		.st15 {fill:#9b59b6;stroke:none;stroke-linecap:butt;stroke-width:0.75}
		.st16 {fill:#ffffff;stroke:#9b59b6;stroke-linecap:round;stroke-linejoin:round;stroke-width:2.25}
		.st17 {fill:#9b59b6;font-family:Symbol;font-size:1.00001em}
		.st18 {fill:#9b59b6;stroke:#9b59b6;stroke-linecap:round;stroke-linejoin:round;stroke-width:1.5}
		.st19 {fill:none;stroke:#e74c3c;stroke-linecap:round;stroke-linejoin:round;stroke-width:2.25}
		.st20 {fill:#e74c3c;font-family:Symbol;font-size:1.00001em}
		.st21 {fill:#e74c3c;stroke:#e74c3c;stroke-linecap:round;stroke-linejoin:round;stroke-width:1.5}
		.st22 {fill:#e74c3c;stroke:none;stroke-linecap:butt;stroke-width:0.75}
		.st23 {fill:url(#grad0-116);stroke:none;stroke-linecap:round;stroke-linejoin:round;stroke-width:0.24}
		.st24 {fill:url(#grad0-120);stroke:none;stroke-linecap:round;stroke-linejoin:round;stroke-width:0.24}
		.st25 {fill:url(#grad0-124);stroke:none;stroke-linecap:round;stroke-linejoin:round;stroke-width:0.24}
		.st26 {fill:#ffffff;stroke:#1abc9c;stroke-linecap:round;stroke-linejoin:round;stroke-width:2.25}
		.st27 {fill:#1abc9c;font-family:Symbol;font-size:1.00001em}
		.st28 {fill:#1abc9c;stroke:none;stroke-linecap:butt;stroke-width:11.1273}
		.st29 {fill:#1abc9c;stroke:#1abc9c;stroke-linecap:round;stroke-linejoin:round;stroke-width:1.5}
		.st30 {fill:none;fill-rule:evenodd;font-size:12px;overflow:visible;stroke-linecap:square;stroke-miterlimit:3}
	]]>
	</style>

	<defs id="Patterns_And_Gradients">
		<linearGradient id="grad0-7" x1="0" y1="0" x2="1" y2="0" gradientTransform="rotate(180 0.5 0.5)">
			<stop offset="0" stop-color="#3498db" stop-opacity="1"/>
			<stop offset="1" stop-color="#2ecc71" stop-opacity="1"/>
		</linearGradient>
		<linearGradient id="grad0-116" x1="0" y1="0" x2="1" y2="0" gradientTransform="rotate(180 0.5 0.5)">
			<stop offset="0" stop-color="#2ecc71" stop-opacity="1"/>
			<stop offset="1" stop-color="#9b59b6" stop-opacity="1"/>
		</linearGradient>
		<linearGradient id="grad0-120" x1="0" y1="0" x2="1" y2="0" gradientTransform="rotate(180 0.5 0.5)">
			<stop offset="0" stop-color="#9b59b6" stop-opacity="1"/>
			<stop offset="1" stop-color="#1abc9c" stop-opacity="1"/>
		</linearGradient>
		<linearGradient id="grad0-124" x1="0" y1="0" x2="1" y2="0" gradientTransform="rotate(180 0.5 0.5)">
			<stop offset="0" stop-color="#1abc9c" stop-opacity="1"/>
			<stop offset="1" stop-color="#e74c3c" stop-opacity="1"/>
		</linearGradient>
	</defs>
	<g v:mID="0" v:index="1" v:groupContext="foregroundPage">
		<title>页-1</title>
		<v:pageProperties v:drawingScale="0.0393701" v:pageScale="0.0393701" v:drawingUnits="24" v:shadowOffsetX="9"
				v:shadowOffsetY="-9"/>
		<g id="shape145-1" v:mID="145" v:groupContext="shape" transform="translate(257.446,-194.1)">
			<title>工作表.145</title>
			<desc>CeNet Omnibus</desc>
			<v:textBlock v:margins="rect(4,4,4,4)" v:tabSpace="42.5197"/>
			<v:textRect cx="145.417" cy="220.695" width="290.84" height="52.4409"/>
			<rect x="0" y="194.475" width="290.835" height="52.4409" class="st1"/>
			<text x="63.08" y="227.9" class="st2" v:langID="2052"><v:paragraph v:horizAlign="1"/><v:tabList/>CeNet Omnibus</text>		</g>
		<g id="shape158-4" v:mID="158" v:groupContext="shape" transform="translate(182.876,348.741) rotate(180)">
			<title>普通箭头</title>
			<v:userDefs>
				<v:ud v:nameU="visVersion" v:val="VT0(15):26"/>
				<v:ud v:nameU="ArrowType" v:prompt="" v:val="VT0(2):26"/>
			</v:userDefs>
			<path d="M0 246.92 L11.34 235.58 L11.34 241.25 L53.29 241.25 L53.29 246.92 L53.29 252.58 L11.34 252.58 L11.34 258.25
						 L0 246.92 Z" class="st3"/>
		</g>
		<g id="group115-8" transform="translate(0.749759,-1.75248)" v:mID="115" v:groupContext="group">
			<title>工作表.115</title>
			<g id="group116-9" transform="translate(37.0205,-116.619)" v:mID="116" v:groupContext="group">
				<title>工作表.116</title>
				<g id="shape117-10" v:mID="117" v:groupContext="shape">
					<title>工作表.117</title>
					<path d="M73.13 237.85 L68.68 232.29 L68.68 203.4 C68.68 200.37 66.05 197.91 62.82 197.91 L51.51 197.91 C50.86
								 197.91 50.34 198.4 50.34 199.01 C50.34 199.62 50.86 200.11 51.51 200.11 L62.82 200.11 C64.76 200.11
								 66.34 201.58 66.34 203.4 L66.34 231.56 L5.85 231.56 C5.48 231.56 5.14 231.72 4.92 232 L0.23 237.85
								 C0.08 238.04 0 238.27 0 238.5 L0 241.43 C0 244.45 2.63 246.92 5.85 246.92 L67.51 246.92 C70.73 246.92
								 73.36 244.45 73.36 241.43 L73.36 238.5 C73.36 238.27 73.28 238.04 73.13 237.85 ZM6.44 233.75 L66.92
								 233.75 L69.85 237.41 L3.51 237.41 L6.44 233.75 ZM71.02 241.43 C71.02 243.24 69.44 244.72 67.51 244.72
								 L5.85 244.72 C3.92 244.72 2.34 243.24 2.34 241.43 L2.34 239.6 L35.51 239.6 L35.51 241.43 C35.51
								 242.04 36.03 242.53 36.68 242.53 C37.33 242.53 37.85 242.04 37.85 241.43 L37.85 239.6 L71.02 239.6
								 L71.02 241.43 Z" class="st4"/>
				</g>
				<g id="shape118-12" v:mID="118" v:groupContext="shape" transform="translate(4.68261,-17.5529)">
					<title>工作表.118</title>
					<path d="M17.17 215.47 L5.85 215.47 C2.63 215.47 0 217.93 0 220.95 L0 245.82 C0 246.42 0.52 246.92 1.17 246.92
								 C1.82 246.92 2.34 246.42 2.34 245.82 L2.34 220.95 C2.34 219.14 3.92 217.66 5.85 217.66 L17.17 217.66
								 C17.82 217.66 18.34 217.17 18.34 216.56 C18.34 215.96 17.82 215.47 17.17 215.47 Z" class="st4"/>
				</g>
				<g id="shape119-14" v:mID="119" v:groupContext="shape" transform="translate(19.0286,-27.0607)">
					<title>工作表.119</title>
					<path d="M35.12 230.04 C34.94 229.63 34.51 229.36 34.04 229.36 L28.97 229.36 L28.97 206.32 C28.97 205.72 28.44
								 205.23 27.8 205.23 L7.51 205.23 C6.86 205.23 6.34 205.72 6.34 206.32 L6.34 229.36 L1.26 229.36 C0.79
								 229.36 0.36 229.63 0.18 230.04 C0 230.45 0.1 230.92 0.43 231.24 L16.82 246.59 C17.05 246.81 17.35
								 246.92 17.65 246.92 C17.95 246.92 18.25 246.81 18.48 246.59 L34.87 231.24 C35.2 230.92 35.3 230.45
								 35.12 230.04 ZM17.65 244.27 L4.09 231.56 L7.51 231.56 C8.15 231.56 8.68 231.07 8.68 230.46 L8.68
								 207.42 L26.63 207.42 L26.63 230.46 C26.63 231.07 27.15 231.56 27.8 231.56 L31.21 231.56 L17.65 244.27
								 Z" class="st4"/>
				</g>
				<g id="shape120-16" v:mID="120" v:groupContext="shape" transform="translate(35.5097,-54.4869)">
					<title>工作表.120</title>
					<ellipse cx="1.17062" cy="245.818" rx="1.17062" ry="1.09702" class="st4"/>
				</g>
				<g id="shape121-18" v:mID="121" v:groupContext="shape" transform="translate(30.0466,-54.4869)">
					<title>工作表.121</title>
					<ellipse cx="1.17062" cy="245.818" rx="1.17062" ry="1.09702" class="st4"/>
				</g>
				<g id="shape122-20" v:mID="122" v:groupContext="shape" transform="translate(40.9727,-54.4869)">
					<title>工作表.122</title>
					<ellipse cx="1.17062" cy="245.818" rx="1.17062" ry="1.09702" class="st4"/>
				</g>
			</g>
			<g id="shape123-22" v:mID="123" v:groupContext="shape" transform="translate(8.31642,-38.5462)">
				<title>圆角矩形</title>
				<desc>CeRNA Expression MicroRNA Expression CeRNA Information</desc>
				<v:userDefs>
					<v:ud v:nameU="CTypeTopLeftSnip" v:prompt="" v:val="VT0(0):5"/>
					<v:ud v:nameU="CTypeTopRightSnip" v:prompt="" v:val="VT0(0):5"/>
					<v:ud v:nameU="CTypeBotLeftSnip" v:prompt="" v:val="VT0(0):5"/>
					<v:ud v:nameU="CTypeBotRightSnip" v:prompt="" v:val="VT0(0):5"/>
					<v:ud v:nameU="CornerLockHoriz" v:prompt="" v:val="VT0(1):5"/>
					<v:ud v:nameU="CornerLockVert" v:prompt="" v:val="VT0(1):5"/>
					<v:ud v:nameU="CornerLockDiag" v:prompt="" v:val="VT0(0):5"/>
					<v:ud v:nameU="TopLeftOffset" v:prompt="" v:val="VT0(0.15748031496063):24"/>
					<v:ud v:nameU="TopRightOffset" v:prompt="" v:val="VT0(0.15748031496063):24"/>
					<v:ud v:nameU="BotLeftOffset" v:prompt="" v:val="VT0(0.15748031496063):24"/>
					<v:ud v:nameU="BotRightOffset" v:prompt="" v:val="VT0(0.15748031496063):24"/>
					<v:ud v:nameU="visVersion" v:prompt="" v:val="VT0(15):26"/>
					<v:ud v:nameU="TopLeftOffset" v:prompt="" v:val="VT0(0.1816232327528):1"/>
					<v:ud v:nameU="TopRightOffset" v:prompt="" v:val="VT0(0.1816232327528):1"/>
					<v:ud v:nameU="BotLeftOffset" v:prompt="" v:val="VT0(0.1816232327528):1"/>
					<v:ud v:nameU="BotRightOffset" v:prompt="" v:val="VT0(0.1816232327528):1"/>
				</v:userDefs>
				<v:textBlock v:margins="rect(4,4,4,4)" v:tabSpace="11.3386"/>
				<v:textRect cx="65.3844" cy="212.541" width="130.77" height="68.7486"/>
				<path d="M13.08 246.92 L117.69 246.92 A13.0767 13.0767 -180 0 0 130.77 233.84 L130.77 191.24 A13.0767 13.0767 -180
							 0 0 117.69 178.17 L13.08 178.17 A13.0767 13.0767 -180 0 0 -0 191.24 L0 233.84 A13.0767 13.0767 -180
							 0 0 13.08 246.92 Z" class="st5"/>
				<text x="4" y="201.74" class="st6" v:langID="2052"><v:paragraph v:indentFirst="-18" v:indentLeft="18" v:bullet="1"/><v:tabList/><tspan
							class="st7" v:isBullet="true">·</tspan> <tspan class="st8">CeRNA Expression<v:newlineChar/></tspan><tspan
							x="4" dy="1.2em" class="st7" v:isBullet="true">·</tspan> <tspan class="st8">MicroRNA Expression<v:newlineChar/></tspan><tspan
							x="4" dy="1.2em" class="st7" v:isBullet="true">·</tspan> <tspan class="st8">CeRNA Information</tspan></text>			</g>
			<g id="shape124-31" v:mID="124" v:groupContext="shape">
				<title>圆角矩形.111</title>
				<desc>Data Input</desc>
				<v:userDefs>
					<v:ud v:nameU="CTypeTopLeftSnip" v:prompt="" v:val="VT0(0):5"/>
					<v:ud v:nameU="CTypeTopRightSnip" v:prompt="" v:val="VT0(0):5"/>
					<v:ud v:nameU="CTypeBotLeftSnip" v:prompt="" v:val="VT0(0):5"/>
					<v:ud v:nameU="CTypeBotRightSnip" v:prompt="" v:val="VT0(0):5"/>
					<v:ud v:nameU="CornerLockHoriz" v:prompt="" v:val="VT0(1):5"/>
					<v:ud v:nameU="CornerLockVert" v:prompt="" v:val="VT0(1):5"/>
					<v:ud v:nameU="CornerLockDiag" v:prompt="" v:val="VT0(0):5"/>
					<v:ud v:nameU="TopLeftOffset" v:prompt="" v:val="VT0(0.15748031496063):24"/>
					<v:ud v:nameU="TopRightOffset" v:prompt="" v:val="VT0(0.15748031496063):24"/>
					<v:ud v:nameU="BotLeftOffset" v:prompt="" v:val="VT0(0.15748031496063):24"/>
					<v:ud v:nameU="BotRightOffset" v:prompt="" v:val="VT0(0.15748031496063):24"/>
					<v:ud v:nameU="visVersion" v:prompt="" v:val="VT0(15):26"/>
					<v:ud v:nameU="TopLeftOffset" v:prompt="" v:val="VT0(0.20472440944882):1"/>
					<v:ud v:nameU="TopRightOffset" v:prompt="" v:val="VT0(0.20472440944882):1"/>
					<v:ud v:nameU="BotLeftOffset" v:prompt="" v:val="VT0(0.20472440944882):1"/>
					<v:ud v:nameU="BotRightOffset" v:prompt="" v:val="VT0(0.20472440944882):1"/>
				</v:userDefs>
				<v:textBlock v:margins="rect(4,4,4,4)" v:tabSpace="42.5197"/>
				<v:textRect cx="73.7008" cy="225.656" width="147.41" height="42.5197"/>
				<path d="M14.74 246.92 L132.66 246.92 A14.7399 14.7399 -180 0 0 147.4 232.18 L147.4 219.14 A14.7399 14.7399 -180
							 0 0 132.66 204.4 L14.74 204.4 A14.7399 14.7399 -180 0 0 0 219.14 L0 232.18 A14.7399 14.7399 -180 0 0
							 14.74 246.92 Z" class="st9"/>
				<text x="40.83" y="229.86" class="st10" v:langID="2052"><v:paragraph v:horizAlign="1"/><v:tabList/>Data Input</text>			</g>
		</g>
		<g id="group125-34" transform="translate(164.956,-1.75248)" v:mID="125" v:groupContext="group">
			<title>工作表.125</title>
			<g id="group126-35" transform="translate(37.0205,-116.619)" v:mID="126" v:groupContext="group">
				<title>工作表.126</title>
				<g id="group127-36" v:mID="127" v:groupContext="group">
					<title>工作表.127</title>
					<g id="shape128-37" v:mID="128" v:groupContext="shape" transform="translate(0,-15.9205)">
						<title>工作表.128</title>
						<path d="M37.65 236.68 C37.38 236.14 36.69 235.91 36.11 236.17 C35.17 236.58 34.18 236.93 33.18 237.19 C32.76
									 237.3 32.44 237.62 32.36 238.02 L31.13 243.77 C31.01 244.33 30.47 244.74 29.86 244.74 L26.51
									 244.74 C25.9 244.74 25.36 244.33 25.24 243.77 L24.02 238.02 C23.93 237.62 23.61 237.3 23.19
									 237.19 C21.77 236.82 20.41 236.29 19.12 235.61 C18.74 235.41 18.28 235.43 17.91 235.65 L12.71
									 238.9 C12.2 239.22 11.51 239.16 11.08 238.75 L8.71 236.54 C8.28 236.13 8.21 235.48 8.55 235
									 L12.02 230.13 C12.26 229.79 12.27 229.35 12.06 228.99 C11.34 227.79 10.77 226.51 10.38 225.18
									 C10.26 224.79 9.91 224.49 9.49 224.41 L3.36 223.26 C2.76 223.15 2.32 222.65 2.32 222.07 L2.32
									 218.93 C2.32 218.36 2.76 217.85 3.36 217.74 L9.49 216.59 C9.91 216.51 10.26 216.21 10.38 215.82
									 C10.77 214.49 11.34 213.21 12.06 212.01 C12.27 211.65 12.26 211.21 12.02 210.87 L8.55 206 C8.21
									 205.52 8.28 204.88 8.71 204.47 L11.08 202.25 C11.51 201.84 12.2 201.78 12.71 202.1 L17.91 205.35
									 C18.28 205.57 18.74 205.59 19.12 205.39 C20.41 204.71 21.77 204.18 23.19 203.81 C23.61 203.7
									 23.93 203.38 24.02 202.98 L25.24 197.24 C25.36 196.67 25.9 196.26 26.51 196.26 L29.86 196.26
									 C30.47 196.26 31.01 196.67 31.13 197.24 L32.36 202.98 C32.44 203.38 32.76 203.7 33.18 203.81
									 C34.6 204.18 35.97 204.71 37.25 205.39 C37.63 205.59 38.1 205.57 38.46 205.35 L43.66 202.1 C44.17
									 201.78 44.86 201.84 45.3 202.25 L47.66 204.47 C48.1 204.88 48.16 205.52 47.82 206 L44.36 210.87
									 C44.11 211.21 44.1 211.65 44.31 212.01 C45.03 213.21 45.6 214.49 46 215.82 C46.11 216.22 46.46
									 216.51 46.89 216.59 L53.01 217.74 C53.62 217.85 54.06 218.36 54.06 218.94 L54.06 222.07 C54.06
									 222.65 53.62 223.15 53.01 223.26 L46.89 224.41 C46.46 224.49 46.11 224.79 46 225.18 C45.71 226.15
									 45.33 227.09 44.87 227.99 C44.59 228.53 44.83 229.18 45.41 229.44 C45.99 229.7 46.68 229.47
									 46.96 228.93 C47.37 228.12 47.73 227.27 48.02 226.41 L53.47 225.39 C55.15 225.07 56.37 223.68
									 56.37 222.07 L56.37 218.93 C56.37 217.33 55.15 215.93 53.47 215.61 L48.02 214.59 C47.67 213.54
									 47.21 212.52 46.67 211.54 L49.75 207.21 C50.7 205.87 50.51 204.07 49.3 202.93 L46.93 200.72
									 C45.72 199.58 43.8 199.4 42.37 200.29 L37.75 203.18 C36.71 202.67 35.61 202.25 34.49 201.91
									 L33.4 196.81 C33.07 195.23 31.57 194.09 29.86 194.09 L26.51 194.09 C24.8 194.09 23.31 195.23
									 22.97 196.81 L21.88 201.91 C20.76 202.25 19.66 202.67 18.62 203.18 L14 200.29 C12.57 199.4 10.65
									 199.58 9.44 200.72 L7.07 202.93 C5.86 204.07 5.67 205.87 6.62 207.21 L9.7 211.54 C9.16 212.52
									 8.71 213.54 8.35 214.59 L2.91 215.61 C1.22 215.93 0 217.33 0 218.94 L0 222.07 C0 223.68 1.22
									 225.07 2.91 225.39 L8.35 226.41 C8.71 227.46 9.16 228.49 9.7 229.47 L6.62 233.8 C5.67 235.14
									 5.86 236.93 7.07 238.07 L9.44 240.29 C10.65 241.42 12.57 241.6 14 240.71 L18.62 237.82 C19.66
									 238.33 20.76 238.76 21.88 239.09 L22.97 244.19 C23.31 245.77 24.8 246.92 26.51 246.92 L29.86
									 246.92 C31.57 246.92 33.07 245.77 33.4 244.19 L34.49 239.09 C35.38 238.83 36.26 238.5 37.1 238.13
									 C37.68 237.87 37.93 237.22 37.65 236.68 Z" class="st11"/>
					</g>
					<g id="shape129-39" v:mID="129" v:groupContext="shape" transform="translate(18.63,-36.1831)">
						<title>工作表.129</title>
						<path d="M19.59 246.8 C19.76 246.88 19.94 246.92 20.12 246.92 C20.54 246.92 20.94 246.7 21.15 246.33 C22.08
									 244.62 22.58 242.69 22.58 240.76 C22.58 234.04 16.74 228.56 9.56 228.56 C6.14 228.56 2.91 229.79
									 0.47 232.03 C0.01 232.44 0 233.13 0.45 233.56 C0.89 233.99 1.63 234 2.08 233.58 C4.09 231.74
									 6.75 230.73 9.56 230.73 C15.46 230.73 20.26 235.23 20.26 240.76 C20.26 242.37 19.86 243.91 19.09
									 245.33 C18.79 245.87 19.02 246.52 19.59 246.8 Z" class="st11"/>
					</g>
					<g id="shape130-41" v:mID="130" v:groupContext="shape" transform="translate(15.1657,-30.1327)">
						<title>工作表.130</title>
						<path d="M2.18 230.07 C1.57 229.87 0.91 230.18 0.71 230.74 C0.24 232.02 0 233.35 0 234.71 C0 241.44 5.84
									 246.92 13.02 246.92 C15.78 246.92 18.42 246.12 20.65 244.6 C21.17 244.25 21.28 243.57 20.91
									 243.09 C20.53 242.6 19.81 242.49 19.29 242.84 C17.46 244.09 15.29 244.74 13.02 244.74 C7.12
									 244.74 2.32 240.24 2.32 234.71 C2.32 233.59 2.51 232.5 2.9 231.45 C3.1 230.88 2.78 230.26 2.18
									 230.07 Z" class="st11"/>
					</g>
					<g id="shape131-43" v:mID="131" v:groupContext="shape" transform="translate(35.5218,0)">
						<title>工作表.131</title>
						<path d="M35.61 225.61 L32.26 224.98 C32.06 224.41 31.81 223.86 31.53 223.32 L33.42 220.66 C34.15 219.63
									 34.01 218.25 33.07 217.38 L31.52 215.92 C30.59 215.05 29.12 214.91 28.02 215.6 L25.18 217.37
									 C24.61 217.11 24.01 216.87 23.41 216.68 L22.74 213.54 C22.48 212.33 21.33 211.46 20.02 211.46
									 L17.82 211.46 C16.5 211.46 15.36 212.33 15.1 213.54 L14.43 216.68 C13.83 216.88 13.23 217.11
									 12.66 217.37 L9.82 215.6 C8.72 214.91 7.25 215.05 6.32 215.92 L4.76 217.38 C3.83 218.25 3.69
									 219.63 4.42 220.66 L6.31 223.32 C5.92 224.06 5.6 224.83 5.37 225.63 C5.19 226.2 5.55 226.8 6.17
									 226.96 C6.79 227.13 7.43 226.79 7.6 226.21 C7.85 225.37 8.21 224.55 8.67 223.79 C8.88 223.43
									 8.87 222.99 8.62 222.65 L6.35 219.45 C6.23 219.28 6.25 219.06 6.4 218.91 L7.96 217.46 C8.11
									 217.31 8.35 217.29 8.53 217.4 L11.95 219.54 C12.31 219.76 12.78 219.78 13.16 219.58 C13.97 219.15
									 14.84 218.81 15.74 218.58 C16.16 218.47 16.48 218.14 16.57 217.74 L17.37 213.97 C17.42 213.77
									 17.6 213.63 17.82 213.63 L20.02 213.63 C20.23 213.63 20.42 213.77 20.47 213.97 L21.27 217.74
									 C21.36 218.14 21.67 218.47 22.09 218.58 C23 218.81 23.87 219.15 24.68 219.58 C25.06 219.78 25.53
									 219.76 25.89 219.54 L29.31 217.4 C29.49 217.29 29.73 217.31 29.88 217.46 L31.44 218.91 C31.59
									 219.06 31.61 219.28 31.49 219.45 L29.21 222.65 C28.97 222.99 28.96 223.43 29.17 223.79 C29.63
									 224.55 29.99 225.37 30.24 226.21 C30.36 226.6 30.7 226.9 31.13 226.98 L35.15 227.74 C35.37 227.78
									 35.52 227.95 35.52 228.16 L35.52 230.22 C35.52 230.42 35.37 230.59 35.15 230.63 L31.13 231.39
									 C30.7 231.47 30.36 231.77 30.24 232.16 C29.99 233.01 29.63 233.82 29.17 234.58 C28.96 234.94
									 28.97 235.38 29.21 235.72 L31.49 238.92 C31.61 239.09 31.59 239.32 31.44 239.46 L29.88 240.92
									 C29.73 241.06 29.49 241.08 29.31 240.97 L25.89 238.83 C25.53 238.61 25.06 238.59 24.68 238.79
									 C23.86 239.22 23 239.56 22.09 239.8 C21.67 239.91 21.36 240.23 21.27 240.63 L20.46 244.4 C20.42
									 244.6 20.23 244.74 20.02 244.74 L17.82 244.74 C17.6 244.74 17.42 244.6 17.37 244.4 L16.57 240.63
									 C16.48 240.23 16.16 239.91 15.74 239.8 C14.84 239.56 13.97 239.22 13.16 238.79 C12.78 238.59
									 12.31 238.61 11.95 238.83 L8.53 240.97 C8.35 241.08 8.11 241.06 7.96 240.92 L6.4 239.46 C6.25
									 239.32 6.23 239.09 6.35 238.92 L8.62 235.72 C8.87 235.38 8.88 234.94 8.67 234.58 C8.21 233.82
									 7.85 233.01 7.6 232.16 C7.48 231.77 7.14 231.47 6.71 231.39 L2.68 230.63 C2.47 230.59 2.32 230.42
									 2.32 230.21 L2.32 228.16 C2.32 227.95 2.47 227.78 2.68 227.74 L2.93 227.69 C3.56 227.57 3.96
									 227 3.84 226.41 C3.71 225.83 3.1 225.44 2.48 225.56 L2.23 225.61 C0.94 225.85 0 226.92 0 228.16
									 L0 230.21 C0 231.45 0.94 232.52 2.23 232.76 L5.58 233.39 C5.78 233.96 6.03 234.52 6.31 235.05
									 L4.42 237.72 C3.69 238.74 3.83 240.12 4.76 240.99 L6.32 242.45 C7.25 243.32 8.72 243.46 9.82
									 242.78 L12.66 241 C13.23 241.27 13.82 241.5 14.43 241.69 L15.1 244.83 C15.36 246.04 16.5 246.92
									 17.82 246.92 L20.02 246.92 C21.33 246.92 22.48 246.04 22.74 244.83 L23.41 241.69 C24.01 241.5
									 24.61 241.27 25.18 241 L28.02 242.77 C29.12 243.46 30.59 243.32 31.52 242.45 L33.07 240.99 C34.01
									 240.12 34.15 238.74 33.42 237.72 L31.53 235.05 C31.81 234.52 32.06 233.96 32.26 233.39 L35.61
									 232.76 C36.9 232.52 37.84 231.45 37.84 230.21 L37.84 228.16 C37.84 226.92 36.9 225.85 35.61
									 225.61 Z" class="st11"/>
					</g>
					<g id="shape132-45" v:mID="132" v:groupContext="shape" transform="translate(47.9544,-11.651)">
						<title>工作表.132</title>
						<path d="M6.49 236.93 C8.79 236.93 10.66 238.68 10.66 240.84 C10.66 241.44 11.18 241.92 11.82 241.92 C12.45
									 241.92 12.97 241.44 12.97 240.84 C12.97 237.48 10.06 234.76 6.49 234.76 C2.91 234.76 0 237.48
									 0 240.84 C0 244.19 2.91 246.92 6.49 246.92 C7.94 246.92 9.31 246.48 10.45 245.65 C10.96 245.28
									 11.05 244.6 10.66 244.13 C10.27 243.65 9.54 243.56 9.03 243.93 C8.3 244.46 7.42 244.74 6.49
									 244.74 C4.19 244.74 2.32 242.99 2.32 240.84 C2.32 238.68 4.19 236.93 6.49 236.93 Z"
								class="st11"/>
					</g>
					<g id="shape133-47" v:mID="133" v:groupContext="shape" transform="translate(21.1288,-35.7212)">
						<title>工作表.133</title>
						<path d="M14.11 240.3 C14.11 236.66 10.95 233.69 7.06 233.69 C3.17 233.69 0 236.66 0 240.3 C0 243.95 3.17
									 246.92 7.06 246.92 C10.95 246.92 14.11 243.95 14.11 240.3 ZM2.32 240.3 C2.32 237.85 4.44 235.86
									 7.06 235.86 C9.67 235.86 11.8 237.85 11.8 240.3 C11.8 242.75 9.67 244.74 7.06 244.74 C4.44 244.74
									 2.32 242.75 2.32 240.3 Z" class="st11"/>
					</g>
				</g>
			</g>
			<g id="shape134-49" v:mID="134" v:groupContext="shape" transform="translate(8.31642,-38.5462)">
				<title>圆角矩形.162</title>
				<desc>CeRNA Group Sample Filter CeRNA Filter Value Transformaion</desc>
				<v:userDefs>
					<v:ud v:nameU="CTypeTopLeftSnip" v:prompt="" v:val="VT0(0):5"/>
					<v:ud v:nameU="CTypeTopRightSnip" v:prompt="" v:val="VT0(0):5"/>
					<v:ud v:nameU="CTypeBotLeftSnip" v:prompt="" v:val="VT0(0):5"/>
					<v:ud v:nameU="CTypeBotRightSnip" v:prompt="" v:val="VT0(0):5"/>
					<v:ud v:nameU="CornerLockHoriz" v:prompt="" v:val="VT0(1):5"/>
					<v:ud v:nameU="CornerLockVert" v:prompt="" v:val="VT0(1):5"/>
					<v:ud v:nameU="CornerLockDiag" v:prompt="" v:val="VT0(0):5"/>
					<v:ud v:nameU="TopLeftOffset" v:prompt="" v:val="VT0(0.15748031496063):24"/>
					<v:ud v:nameU="TopRightOffset" v:prompt="" v:val="VT0(0.15748031496063):24"/>
					<v:ud v:nameU="BotLeftOffset" v:prompt="" v:val="VT0(0.15748031496063):24"/>
					<v:ud v:nameU="BotRightOffset" v:prompt="" v:val="VT0(0.15748031496063):24"/>
					<v:ud v:nameU="visVersion" v:prompt="" v:val="VT0(15):26"/>
					<v:ud v:nameU="TopLeftOffset" v:prompt="" v:val="VT0(0.1816232327528):1"/>
					<v:ud v:nameU="TopRightOffset" v:prompt="" v:val="VT0(0.1816232327528):1"/>
					<v:ud v:nameU="BotLeftOffset" v:prompt="" v:val="VT0(0.1816232327528):1"/>
					<v:ud v:nameU="BotRightOffset" v:prompt="" v:val="VT0(0.1816232327528):1"/>
				</v:userDefs>
				<v:textBlock v:margins="rect(4,4,4,4)" v:tabSpace="11.3386"/>
				<v:textRect cx="65.3844" cy="212.541" width="130.77" height="68.7486"/>
				<path d="M13.08 246.92 L117.69 246.92 A13.0767 13.0767 -180 0 0 130.77 233.84 L130.77 191.24 A13.0767 13.0767 -180
							 0 0 117.69 178.17 L13.08 178.17 A13.0767 13.0767 -180 0 0 -0 191.24 L0 233.84 A13.0767 13.0767 -180
							 0 0 13.08 246.92 Z" class="st12"/>
				<text x="4" y="194.54" class="st13" v:langID="2052"><v:paragraph v:indentFirst="-18" v:indentLeft="18" v:bullet="1"/><v:tabList/><tspan
							class="st7" v:isBullet="true">·</tspan> <tspan class="st8">CeRNA Group<v:newlineChar/></tspan><tspan
							x="4" dy="1.2em" class="st7" v:isBullet="true">·</tspan> <tspan class="st8">Sample Filter<v:newlineChar/></tspan><tspan
							x="4" dy="1.2em" class="st7" v:isBullet="true">·</tspan> <tspan class="st8">CeRNA Filter<v:newlineChar/></tspan><tspan
							x="4" dy="1.2em" class="st7" v:isBullet="true">·</tspan> <tspan class="st8">Value Transformaion</tspan></text>			</g>
			<g id="shape135-60" v:mID="135" v:groupContext="shape">
				<title>圆角矩形.112</title>
				<desc>Data Processing</desc>
				<v:userDefs>
					<v:ud v:nameU="CTypeTopLeftSnip" v:prompt="" v:val="VT0(0):5"/>
					<v:ud v:nameU="CTypeTopRightSnip" v:prompt="" v:val="VT0(0):5"/>
					<v:ud v:nameU="CTypeBotLeftSnip" v:prompt="" v:val="VT0(0):5"/>
					<v:ud v:nameU="CTypeBotRightSnip" v:prompt="" v:val="VT0(0):5"/>
					<v:ud v:nameU="CornerLockHoriz" v:prompt="" v:val="VT0(1):5"/>
					<v:ud v:nameU="CornerLockVert" v:prompt="" v:val="VT0(1):5"/>
					<v:ud v:nameU="CornerLockDiag" v:prompt="" v:val="VT0(0):5"/>
					<v:ud v:nameU="TopLeftOffset" v:prompt="" v:val="VT0(0.15748031496063):24"/>
					<v:ud v:nameU="TopRightOffset" v:prompt="" v:val="VT0(0.15748031496063):24"/>
					<v:ud v:nameU="BotLeftOffset" v:prompt="" v:val="VT0(0.15748031496063):24"/>
					<v:ud v:nameU="BotRightOffset" v:prompt="" v:val="VT0(0.15748031496063):24"/>
					<v:ud v:nameU="visVersion" v:prompt="" v:val="VT0(15):26"/>
					<v:ud v:nameU="TopLeftOffset" v:prompt="" v:val="VT0(0.20472440944882):1"/>
					<v:ud v:nameU="TopRightOffset" v:prompt="" v:val="VT0(0.20472440944882):1"/>
					<v:ud v:nameU="BotLeftOffset" v:prompt="" v:val="VT0(0.20472440944882):1"/>
					<v:ud v:nameU="BotRightOffset" v:prompt="" v:val="VT0(0.20472440944882):1"/>
				</v:userDefs>
				<v:textBlock v:margins="rect(4,4,4,4)" v:tabSpace="42.5197"/>
				<v:textRect cx="73.7008" cy="225.656" width="147.41" height="42.5197"/>
				<path d="M14.74 246.92 L132.66 246.92 A14.7399 14.7399 -180 0 0 147.4 232.18 L147.4 219.14 A14.7399 14.7399 -180
							 0 0 132.66 204.4 L14.74 204.4 A14.7399 14.7399 -180 0 0 0 219.14 L0 232.18 A14.7399 14.7399 -180 0 0
							 14.74 246.92 Z" class="st14"/>
				<text x="25.68" y="229.86" class="st10" v:langID="2052"><v:paragraph v:horizAlign="1"/><v:tabList/>Data Processing</text>			</g>
		</g>
		<g id="group136-63" transform="translate(329.162,-1.75248)" v:mID="136" v:groupContext="group">
			<title>工作表.136</title>
			<g id="group137-64" transform="translate(37.0205,-116.619)" v:mID="137" v:groupContext="group">
				<title>工作表.137</title>
				<g id="shape138-65" v:mID="138" v:groupContext="shape">
					<title>工作表.138</title>
					<path d="M1.22 246.92 L72.14 246.92 A1.22264 1.14578 -180 0 0 73.36 245.77 L73.36 226.73 A7.05732 6.61364 -180
								 0 0 63.83 220.54 L60.47 221.72 A3.69034 3.45834 0 0 1 56.24 220.56 A6.14523 5.75889 -180 0 0 51.35
								 218.27 L49.14 218.27 L51.23 214.18 A1.22273 1.14586 -180 0 0 51.22 213.17 L46.33 204.01 A1.22256
								 1.1457 -180 0 0 45.24 203.37 L40.35 203.37 L40.35 197.65 A1.22264 1.14578 -180 0 0 41.57 196.5 L41.57
								 182.75 A4.8907 4.58324 -180 0 0 31.79 182.75 L31.79 188.69 L30.99 188.84 A17.0593 15.9869 0 0 1
								 22.99 188.53 A12.7284 11.9282 -180 0 0 13.78 189.34 A6.23575 5.84372 0 0 1 8.23 189.34 A8.69638
								 8.14966 -180 0 0 4.36 188.48 L1.22 188.48 A1.22264 1.14578 -180 0 0 0 189.63 L0 245.77 A1.22264
								 1.14578 -180 0 0 1.22 246.92 ZM39.13 195.35 L34.23 195.35 L34.23 185.04 L39.13 185.04 L39.13 195.35
								 ZM33.01 198.79 L33.01 203.37 L28.12 203.37 A1.22256 1.1457 -180 0 0 27.03 204.01 L22.48 212.54 L22.01
								 212.54 L22.01 198.79 L33.01 198.79 ZM12.23 228.58 L12.23 214.83 L22.46 214.83 L29.41 228.58 L12.23
								 228.58 ZM2.45 228.58 L2.45 214.83 L9.78 214.83 L9.78 228.58 L2.45 228.58 ZM19.56 212.54 L2.45 212.54
								 L2.45 198.79 L19.56 198.79 L19.56 212.54 ZM2.45 230.87 L19.56 230.87 L19.56 244.62 L2.45 244.62
								 L2.45 230.87 ZM22.01 230.87 L30.57 230.87 L32.11 233.93 A4.99392 4.67997 -180 0 0 41.21 233.77 L42.69
								 230.87 L51.35 230.87 L51.35 244.62 L22.01 244.62 L22.01 230.87 ZM70.92 244.62 L53.8 244.62 L53.8
								 230.87 L70.92 230.87 L70.92 244.62 ZM51.35 220.56 A3.68837 3.45649 0 0 1 54.29 221.94 A6.14953 5.76293
								 -180 0 0 61.33 223.87 L64.68 222.69 A4.61193 4.32199 0 0 1 70.92 226.73 L70.92 228.58 L43.86 228.58
								 L47.97 220.56 L51.35 220.56 ZM44.48 205.67 L48.77 213.7 L38.99 232.8 C38.99 232.82 38.98 232.83
								 38.97 232.85 A2.54858 2.38835 0 0 1 34.32 232.95 L24.59 213.7 L28.88 205.67 L33.01 205.67 L33.01
								 211.4 A3.66803 3.43743 -180 1 0 40.35 211.4 L40.35 205.67 L44.48 205.67 ZM37.9 211.4 A1.22268 1.14581
								 0 1 1 35.46 211.4 L35.46 197.65 L37.9 197.65 L37.9 211.4 ZM36.68 180.46 A2.44809 2.29419 0 0 1 39.13
								 182.75 L39.13 182.75 L34.23 182.75 L34.23 182.75 A2.44809 2.29419 0 0 1 36.68 180.46 L36.68 180.46
								 ZM4.36 190.77 A6.23848 5.84628 0 0 1 7.14 191.38 A8.69247 8.146 -180 0 0 14.87 191.38 A10.2892 9.64237
								 0 0 1 22.32 190.74 A19.5154 18.2885 -180 0 0 31.47 191.08 L31.79 191.02 L31.79 196.5 L2.45 196.5
								 L2.45 190.77 L4.36 190.77 Z" class="st15"/>
				</g>
			</g>
			<g id="shape139-67" v:mID="139" v:groupContext="shape" transform="translate(17.0079,-38.5462)">
				<title>圆角矩形.163</title>
				<desc>PCC CMI LA ...</desc>
				<v:userDefs>
					<v:ud v:nameU="CTypeTopLeftSnip" v:prompt="" v:val="VT0(0):5"/>
					<v:ud v:nameU="CTypeTopRightSnip" v:prompt="" v:val="VT0(0):5"/>
					<v:ud v:nameU="CTypeBotLeftSnip" v:prompt="" v:val="VT0(0):5"/>
					<v:ud v:nameU="CTypeBotRightSnip" v:prompt="" v:val="VT0(0):5"/>
					<v:ud v:nameU="CornerLockHoriz" v:prompt="" v:val="VT0(1):5"/>
					<v:ud v:nameU="CornerLockVert" v:prompt="" v:val="VT0(1):5"/>
					<v:ud v:nameU="CornerLockDiag" v:prompt="" v:val="VT0(0):5"/>
					<v:ud v:nameU="TopLeftOffset" v:prompt="" v:val="VT0(0.15748031496063):24"/>
					<v:ud v:nameU="TopRightOffset" v:prompt="" v:val="VT0(0.15748031496063):24"/>
					<v:ud v:nameU="BotLeftOffset" v:prompt="" v:val="VT0(0.15748031496063):24"/>
					<v:ud v:nameU="BotRightOffset" v:prompt="" v:val="VT0(0.15748031496063):24"/>
					<v:ud v:nameU="visVersion" v:prompt="" v:val="VT0(15):26"/>
				</v:userDefs>
				<v:textBlock v:margins="rect(4,4,4,4)" v:tabSpace="11.3386"/>
				<v:textRect cx="56.6929" cy="212.541" width="113.39" height="68.7486"/>
				<path d="M11.34 246.92 L102.05 246.92 A11.3384 11.3384 -180 0 0 113.39 235.58 L113.39 189.51 A11.3384 11.3384 -180
							 0 0 102.05 178.17 L11.34 178.17 A11.3384 11.3384 -180 0 0 0 189.51 L0 235.58 A11.3384 11.3384 -180 0
							 0 11.34 246.92 Z" class="st16"/>
				<text x="4" y="194.54" class="st17" v:langID="2052"><v:paragraph v:indentFirst="-18" v:indentLeft="18" v:bullet="1"/><v:tabList/><tspan
							class="st7" v:isBullet="true">·</tspan> <tspan class="st8">PCC<v:newlineChar/></tspan><tspan x="4"
							dy="1.2em" class="st7" v:isBullet="true">·</tspan> <tspan class="st8">CMI<v:newlineChar/></tspan><tspan
							x="4" dy="1.2em" class="st7" v:isBullet="true">·</tspan> <tspan class="st8">LA<v:newlineChar/></tspan><tspan
							x="4" dy="1.2em" class="st7" v:isBullet="true">·</tspan> <tspan class="st8">...</tspan></text>			</g>
			<g id="shape140-78" v:mID="140" v:groupContext="shape">
				<title>圆角矩形.113</title>
				<desc>Network Construction</desc>
				<v:userDefs>
					<v:ud v:nameU="CTypeTopLeftSnip" v:prompt="" v:val="VT0(0):5"/>
					<v:ud v:nameU="CTypeTopRightSnip" v:prompt="" v:val="VT0(0):5"/>
					<v:ud v:nameU="CTypeBotLeftSnip" v:prompt="" v:val="VT0(0):5"/>
					<v:ud v:nameU="CTypeBotRightSnip" v:prompt="" v:val="VT0(0):5"/>
					<v:ud v:nameU="CornerLockHoriz" v:prompt="" v:val="VT0(1):5"/>
					<v:ud v:nameU="CornerLockVert" v:prompt="" v:val="VT0(1):5"/>
					<v:ud v:nameU="CornerLockDiag" v:prompt="" v:val="VT0(0):5"/>
					<v:ud v:nameU="TopLeftOffset" v:prompt="" v:val="VT0(0.15748031496063):24"/>
					<v:ud v:nameU="TopRightOffset" v:prompt="" v:val="VT0(0.15748031496063):24"/>
					<v:ud v:nameU="BotLeftOffset" v:prompt="" v:val="VT0(0.15748031496063):24"/>
					<v:ud v:nameU="BotRightOffset" v:prompt="" v:val="VT0(0.15748031496063):24"/>
					<v:ud v:nameU="visVersion" v:prompt="" v:val="VT0(15):26"/>
					<v:ud v:nameU="TopLeftOffset" v:prompt="" v:val="VT0(0.20472440944882):1"/>
					<v:ud v:nameU="TopRightOffset" v:prompt="" v:val="VT0(0.20472440944882):1"/>
					<v:ud v:nameU="BotLeftOffset" v:prompt="" v:val="VT0(0.20472440944882):1"/>
					<v:ud v:nameU="BotRightOffset" v:prompt="" v:val="VT0(0.20472440944882):1"/>
				</v:userDefs>
				<v:textBlock v:margins="rect(4,4,4,4)" v:tabSpace="42.5197"/>
				<v:textRect cx="73.7008" cy="225.656" width="147.41" height="42.5197"/>
				<path d="M14.74 246.92 L132.66 246.92 A14.7399 14.7399 -180 0 0 147.4 232.18 L147.4 219.14 A14.7399 14.7399 -180
							 0 0 132.66 204.4 L14.74 204.4 A14.7399 14.7399 -180 0 0 0 219.14 L0 232.18 A14.7399 14.7399 -180 0 0
							 14.74 246.92 Z" class="st18"/>
				<text x="6.62" y="229.86" class="st10" v:langID="2052"><v:paragraph v:horizAlign="1"/><v:tabList/>Network Construction</text>			</g>
		</g>
		<g id="group146-81" transform="translate(657.574,-0.75)" v:mID="146" v:groupContext="group">
			<title>工作表.146</title>
			<g id="shape147-82" v:mID="147" v:groupContext="shape" transform="translate(8.31642,-38.5462)">
				<title>圆角矩形.165</title>
				<desc>Topological Property Module Enrichment Survival Analysis</desc>
				<v:userDefs>
					<v:ud v:nameU="CTypeTopLeftSnip" v:prompt="" v:val="VT0(0):5"/>
					<v:ud v:nameU="CTypeTopRightSnip" v:prompt="" v:val="VT0(0):5"/>
					<v:ud v:nameU="CTypeBotLeftSnip" v:prompt="" v:val="VT0(0):5"/>
					<v:ud v:nameU="CTypeBotRightSnip" v:prompt="" v:val="VT0(0):5"/>
					<v:ud v:nameU="CornerLockHoriz" v:prompt="" v:val="VT0(1):5"/>
					<v:ud v:nameU="CornerLockVert" v:prompt="" v:val="VT0(1):5"/>
					<v:ud v:nameU="CornerLockDiag" v:prompt="" v:val="VT0(0):5"/>
					<v:ud v:nameU="TopLeftOffset" v:prompt="" v:val="VT0(0.15748031496063):24"/>
					<v:ud v:nameU="TopRightOffset" v:prompt="" v:val="VT0(0.15748031496063):24"/>
					<v:ud v:nameU="BotLeftOffset" v:prompt="" v:val="VT0(0.15748031496063):24"/>
					<v:ud v:nameU="BotRightOffset" v:prompt="" v:val="VT0(0.15748031496063):24"/>
					<v:ud v:nameU="visVersion" v:prompt="" v:val="VT0(15):26"/>
					<v:ud v:nameU="TopLeftOffset" v:prompt="" v:val="VT0(0.1816232327528):1"/>
					<v:ud v:nameU="TopRightOffset" v:prompt="" v:val="VT0(0.1816232327528):1"/>
					<v:ud v:nameU="BotLeftOffset" v:prompt="" v:val="VT0(0.1816232327528):1"/>
					<v:ud v:nameU="BotRightOffset" v:prompt="" v:val="VT0(0.1816232327528):1"/>
				</v:userDefs>
				<v:textBlock v:margins="rect(4,4,4,4)" v:tabSpace="11.3386"/>
				<v:textRect cx="65.3844" cy="212.541" width="130.77" height="68.7486"/>
				<path d="M13.08 246.92 L117.69 246.92 A13.0767 13.0767 -180 0 0 130.77 233.84 L130.77 191.24 A13.0767 13.0767 -180
							 0 0 117.69 178.17 L13.08 178.17 A13.0767 13.0767 -180 0 0 -0 191.24 L0 233.84 A13.0767 13.0767 -180
							 0 0 13.08 246.92 Z" class="st19"/>
				<text x="4" y="194.54" class="st20" v:langID="2052"><v:paragraph v:indentFirst="-18" v:indentLeft="18" v:bullet="1"/><v:tabList/><tspan
							class="st7" v:isBullet="true">·</tspan> <tspan class="st8">Topological Property<v:newlineChar/></tspan><tspan
							x="4" dy="1.2em" class="st7" v:isBullet="true">·</tspan> <tspan class="st8">Module<v:newlineChar/></tspan><tspan
							x="4" dy="1.2em" class="st7" v:isBullet="true">·</tspan> <tspan class="st8">Enrichment<v:newlineChar/></tspan><tspan
							x="4" dy="1.2em" class="st7" v:isBullet="true">·</tspan> <tspan class="st8">Survival Analysis</tspan></text>			</g>
			<g id="shape148-93" v:mID="148" v:groupContext="shape">
				<title>圆角矩形.115</title>
				<desc>Network Analysis</desc>
				<v:userDefs>
					<v:ud v:nameU="CTypeTopLeftSnip" v:prompt="" v:val="VT0(0):5"/>
					<v:ud v:nameU="CTypeTopRightSnip" v:prompt="" v:val="VT0(0):5"/>
					<v:ud v:nameU="CTypeBotLeftSnip" v:prompt="" v:val="VT0(0):5"/>
					<v:ud v:nameU="CTypeBotRightSnip" v:prompt="" v:val="VT0(0):5"/>
					<v:ud v:nameU="CornerLockHoriz" v:prompt="" v:val="VT0(1):5"/>
					<v:ud v:nameU="CornerLockVert" v:prompt="" v:val="VT0(1):5"/>
					<v:ud v:nameU="CornerLockDiag" v:prompt="" v:val="VT0(0):5"/>
					<v:ud v:nameU="TopLeftOffset" v:prompt="" v:val="VT0(0.15748031496063):24"/>
					<v:ud v:nameU="TopRightOffset" v:prompt="" v:val="VT0(0.15748031496063):24"/>
					<v:ud v:nameU="BotLeftOffset" v:prompt="" v:val="VT0(0.15748031496063):24"/>
					<v:ud v:nameU="BotRightOffset" v:prompt="" v:val="VT0(0.15748031496063):24"/>
					<v:ud v:nameU="visVersion" v:prompt="" v:val="VT0(15):26"/>
					<v:ud v:nameU="TopLeftOffset" v:prompt="" v:val="VT0(0.20472440944882):1"/>
					<v:ud v:nameU="TopRightOffset" v:prompt="" v:val="VT0(0.20472440944882):1"/>
					<v:ud v:nameU="BotLeftOffset" v:prompt="" v:val="VT0(0.20472440944882):1"/>
					<v:ud v:nameU="BotRightOffset" v:prompt="" v:val="VT0(0.20472440944882):1"/>
				</v:userDefs>
				<v:textBlock v:margins="rect(4,4,4,4)" v:tabSpace="42.5197"/>
				<v:textRect cx="73.7008" cy="225.656" width="147.41" height="42.5197"/>
				<path d="M14.74 246.92 L132.66 246.92 A14.7399 14.7399 -180 0 0 147.4 232.18 L147.4 219.14 A14.7399 14.7399 -180
							 0 0 132.66 204.4 L14.74 204.4 A14.7399 14.7399 -180 0 0 0 219.14 L0 232.18 A14.7399 14.7399 -180 0 0
							 14.74 246.92 Z" class="st21"/>
				<text x="20.62" y="229.86" class="st10" v:langID="2052"><v:paragraph v:horizAlign="1"/><v:tabList/>Network Analysis</text>			</g>
			<g id="group149-96" transform="translate(37.0205,-118.115)" v:mID="149" v:groupContext="group">
				<title>工作表.149</title>
				<g id="shape150-97" v:mID="150" v:groupContext="shape">
					<title>工作表.150</title>
					<path d="M6.11 246.92 L23.23 246.92 A6.12383 6.12383 -180 0 0 29.22 242.02 L72.14 242.02 L72.14 239.58 L68.47
								 239.58 L68.47 188.23 A1.22274 1.22274 -180 0 0 67.25 187 L57.47 187 A1.22274 1.22274 -180 0 0 56.24
								 188.23 L56.24 199.23 L47.68 199.23 A1.22274 1.22274 -180 0 0 46.46 200.45 L46.46 211.46 L37.9 211.46
								 A1.22274 1.22274 -180 0 0 36.68 212.68 L36.68 223.68 L29.34 223.68 L29.34 215.13 A6.11353 6.11353
								 -180 0 0 26.47 209.95 L31.07 205.34 L35.46 205.34 A1.22274 1.22274 -180 0 0 36.68 204.12 L36.68
								 199.74 L43.3 193.12 L47.68 193.12 A1.22274 1.22274 -180 0 0 48.91 191.9 L48.91 187.51 L55.53 180.89
								 L59.91 180.89 A1.22274 1.22274 -180 0 0 61.13 179.67 L61.13 178.45 L68.47 178.45 L68.47 176 L61.13
								 176 L61.13 174.78 A1.22274 1.22274 -180 0 0 59.91 173.55 L55.02 173.55 A1.22274 1.22274 -180 0 0
								 53.8 174.78 L53.8 179.16 L47.18 185.78 L42.79 185.78 A1.22274 1.22274 -180 0 0 41.57 187 L41.57
								 191.39 L34.95 198.01 L30.57 198.01 A1.22274 1.22274 -180 0 0 29.34 199.23 L29.34 203.62 L23.91 209.05
								 A6.15027 6.15027 -180 0 0 23.23 209.01 L6.11 209.01 A6.12038 6.12038 -180 0 0 0 215.13 L0 240.8
								 A6.12038 6.12038 -180 0 0 6.11 246.92 ZM58.69 189.45 L66.02 189.45 L66.02 239.58 L58.69 239.58 L58.69
								 189.45 ZM48.91 201.68 L56.24 201.68 L56.24 239.58 L48.91 239.58 L48.91 201.68 ZM46.46 213.9 L46.46
								 239.58 L39.13 239.58 L39.13 213.9 L46.46 213.9 ZM36.68 226.13 L36.68 239.58 L29.34 239.58 L29.34
								 226.13 L36.68 226.13 ZM56.24 176 L58.69 176 L58.69 178.45 L56.24 178.45 L56.24 176 ZM44.02 188.23
								 L46.46 188.23 L46.46 190.67 L44.02 190.67 L44.02 188.23 ZM31.79 200.45 L34.23 200.45 L34.23 202.9
								 L31.79 202.9 L31.79 200.45 ZM2.45 215.13 A3.67223 3.67223 0 0 1 6.11 211.46 L23.23 211.46 A3.67223
								 3.67223 0 0 1 26.9 215.13 L26.9 240.8 A3.67223 3.67223 0 0 1 23.23 244.47 L6.11 244.47 A3.67223
								 3.67223 0 0 1 2.45 240.8 L2.45 215.13 Z" class="st22"/>
				</g>
				<g id="shape151-99" v:mID="151" v:groupContext="shape" transform="translate(4.8907,-24.4535)">
					<title>工作表.151</title>
					<path d="M1.22 246.92 L18.34 246.92 A1.22274 1.22274 -180 0 0 19.56 245.69 L19.56 239.58 A1.22274 1.22274 -180
								 0 0 18.34 238.36 L1.22 238.36 A1.22274 1.22274 -180 0 0 0 239.58 L0 245.69 A1.22274 1.22274 -180
								 0 0 1.22 246.92 ZM2.45 240.8 L17.12 240.8 L17.12 244.47 L2.45 244.47 L2.45 240.8 Z" class="st22"/>
				</g>
				<g id="shape152-101" v:mID="152" v:groupContext="shape" transform="translate(6.11338,-4.8907)">
					<title>工作表.152</title>
					<path d="M15.89 229.8 L1.22 229.8 A1.22274 1.22274 -180 0 0 -0 231.02 L0 245.69 A1.22274 1.22274 -180 0 0 1.22
								 246.92 L15.89 246.92 A1.22274 1.22274 -180 0 0 17.12 245.69 L17.12 231.02 A1.22274 1.22274 -180
								 0 0 15.89 229.8 ZM2.45 232.24 L7.34 232.24 L7.34 237.13 L2.45 237.13 L2.45 232.24 ZM2.45 239.58
								 L7.34 239.58 L7.34 244.47 L2.45 244.47 L2.45 239.58 ZM14.67 244.47 L9.78 244.47 L9.78 232.24 L14.67
								 232.24 L14.67 244.47 Z" class="st22"/>
				</g>
				<g id="shape153-103" v:mID="153" v:groupContext="shape" transform="translate(50.1297,-2.84217E-14)">
					<title>工作表.153</title>
					<rect x="0" y="244.47" width="4.8907" height="2.44535" class="st22"/>
				</g>
				<g id="shape154-105" v:mID="154" v:groupContext="shape" transform="translate(40.3483,-2.84217E-14)">
					<title>工作表.154</title>
					<rect x="0" y="244.47" width="4.8907" height="2.44535" class="st22"/>
				</g>
				<g id="shape155-107" v:mID="155" v:groupContext="shape" transform="translate(30.5669,-2.84217E-14)">
					<title>工作表.155</title>
					<rect x="0" y="244.47" width="4.8907" height="2.44535" class="st22"/>
				</g>
				<g id="shape156-109" v:mID="156" v:groupContext="shape" transform="translate(59.9111,-2.84217E-14)">
					<title>工作表.156</title>
					<rect x="0" y="244.47" width="4.8907" height="2.44535" class="st22"/>
				</g>
				<g id="shape157-111" v:mID="157" v:groupContext="shape" transform="translate(70.9152,-68.4698)">
					<title>工作表.157</title>
					<rect x="0" y="244.47" width="2.44535" height="2.44535" class="st22"/>
				</g>
			</g>
		</g>
		<g id="shape160-113" v:mID="160" v:groupContext="shape" transform="translate(348.23,348.741) rotate(180)">
			<title>普通箭头.160</title>
			<v:userDefs>
				<v:ud v:nameU="visVersion" v:val="VT0(15):26"/>
				<v:ud v:nameU="ArrowType" v:prompt="" v:val="VT0(2):26"/>
			</v:userDefs>
			<path d="M0 246.92 L11.34 235.58 L11.34 241.25 L53.29 241.25 L53.29 246.92 L53.29 252.58 L11.34 252.58 L11.34 258.25
						 L0 246.92 Z" class="st23"/>
		</g>
		<g id="shape161-117" v:mID="161" v:groupContext="shape" transform="translate(513.584,348.741) rotate(180)">
			<title>普通箭头.161</title>
			<v:userDefs>
				<v:ud v:nameU="visVersion" v:val="VT0(15):26"/>
				<v:ud v:nameU="ArrowType" v:prompt="" v:val="VT0(2):26"/>
			</v:userDefs>
			<path d="M0 246.92 L11.34 235.58 L11.34 241.25 L53.29 241.25 L53.29 246.92 L53.29 252.58 L11.34 252.58 L11.34 258.25
						 L0 246.92 Z" class="st24"/>
		</g>
		<g id="shape163-121" v:mID="163" v:groupContext="shape" transform="translate(678.939,348.741) rotate(180)">
			<title>普通箭头.163</title>
			<v:userDefs>
				<v:ud v:nameU="visVersion" v:val="VT0(15):26"/>
				<v:ud v:nameU="ArrowType" v:prompt="" v:val="VT0(2):26"/>
			</v:userDefs>
			<path d="M0 246.92 L11.34 235.58 L11.34 241.25 L53.29 241.25 L53.29 246.92 L53.29 252.58 L11.34 252.58 L11.34 258.25
						 L0 246.92 Z" class="st25"/>
		</g>
		<g id="group165-125" transform="translate(493.368,-1.75248)" v:mID="165" v:groupContext="group">
			<title>工作表.165</title>
			<g id="shape164-126" v:mID="164" v:groupContext="shape" transform="translate(17.0079,-38.4556)">
				<title>圆角矩形.163</title>
				<desc>Layout Setting Color Setting Shape Setting …</desc>
				<v:userDefs>
					<v:ud v:nameU="CTypeTopLeftSnip" v:prompt="" v:val="VT0(0):5"/>
					<v:ud v:nameU="CTypeTopRightSnip" v:prompt="" v:val="VT0(0):5"/>
					<v:ud v:nameU="CTypeBotLeftSnip" v:prompt="" v:val="VT0(0):5"/>
					<v:ud v:nameU="CTypeBotRightSnip" v:prompt="" v:val="VT0(0):5"/>
					<v:ud v:nameU="CornerLockHoriz" v:prompt="" v:val="VT0(1):5"/>
					<v:ud v:nameU="CornerLockVert" v:prompt="" v:val="VT0(1):5"/>
					<v:ud v:nameU="CornerLockDiag" v:prompt="" v:val="VT0(0):5"/>
					<v:ud v:nameU="TopLeftOffset" v:prompt="" v:val="VT0(0.15748031496063):24"/>
					<v:ud v:nameU="TopRightOffset" v:prompt="" v:val="VT0(0.15748031496063):24"/>
					<v:ud v:nameU="BotLeftOffset" v:prompt="" v:val="VT0(0.15748031496063):24"/>
					<v:ud v:nameU="BotRightOffset" v:prompt="" v:val="VT0(0.15748031496063):24"/>
					<v:ud v:nameU="visVersion" v:prompt="" v:val="VT0(15):26"/>
				</v:userDefs>
				<v:textBlock v:margins="rect(4,4,4,4)" v:tabSpace="11.3386"/>
				<v:textRect cx="56.6929" cy="212.541" width="113.39" height="68.7486"/>
				<path d="M11.34 246.92 L102.05 246.92 A11.3384 11.3384 -180 0 0 113.39 235.58 L113.39 189.51 A11.3384 11.3384 -180
							 0 0 102.05 178.17 L11.34 178.17 A11.3384 11.3384 -180 0 0 0 189.51 L0 235.58 A11.3384 11.3384 -180 0
							 0 11.34 246.92 Z" class="st26"/>
				<text x="4" y="194.54" class="st27" v:langID="1033"><v:paragraph v:indentFirst="-18" v:indentLeft="18" v:bullet="1"/><v:tabList/><tspan
							class="st7" v:isBullet="true">·</tspan> <tspan class="st8">Layout Setting<v:newlineChar/></tspan><tspan
							x="4" dy="1.2em" class="st7" v:isBullet="true">·</tspan> <tspan class="st8">Color Setting<v:newlineChar/></tspan><tspan
							x="4" dy="1.2em" class="st7" v:isBullet="true">·</tspan> <tspan class="st8">Shape Setting<v:newlineChar/></tspan><tspan
							x="4" dy="1.2em" class="st7" v:isBullet="true">·</tspan> <tspan class="st8">…</tspan></text>			</g>
			<g id="group142-137" transform="translate(37.0205,-116.619)" v:mID="142" v:groupContext="group">
				<title>工作表.142</title>
				<g id="shape143-138" v:mID="143" v:groupContext="shape">
					<title>工作表.143</title>
					<path d="M65.36 178.17 C60.94 178.17 57.35 181.53 57.35 185.67 C57.35 186.96 57.71 188.18 58.32 189.24 L45.21
								 201.53 C43.41 200.21 41.14 199.42 38.68 199.42 C36.22 199.42 33.96 200.21 32.15 201.53 L21.92 191.94
								 C22.39 191.2 22.68 190.34 22.68 189.42 C22.68 186.66 20.28 184.42 17.34 184.42 C14.4 184.42 12 186.66
								 12 189.42 C12 192.17 14.4 194.42 17.34 194.42 C18.33 194.42 19.24 194.15 20.03 193.71 L30.26 203.29
								 C28.86 204.99 28.01 207.11 28.01 209.42 C28.01 211.72 28.86 213.84 30.26 215.54 L13.37 231.37 C11.95
								 230.16 10.07 229.42 8 229.42 C3.59 229.42 0 232.78 0 236.92 C0 241.05 3.59 244.42 8 244.42 C12.42
								 244.42 16.01 241.05 16.01 236.92 C16.01 235.62 15.66 234.4 15.04 233.34 L32.15 217.3 C33.62 218.38
								 35.4 219.1 37.35 219.33 L37.35 232.03 C33.57 232.63 30.68 235.71 30.68 239.42 C30.68 243.55 34.27
								 246.92 38.68 246.92 C43.1 246.92 46.69 243.55 46.69 239.42 C46.69 235.71 43.79 232.63 40.02 232.03
								 L40.02 219.33 C41.96 219.1 43.74 218.38 45.22 217.3 L55.44 226.89 C54.97 227.64 54.69 228.49 54.69
								 229.42 C54.69 232.17 57.08 234.42 60.02 234.42 C62.96 234.42 65.36 232.17 65.36 229.42 C65.36 226.66
								 62.96 224.42 60.02 224.42 C59.04 224.42 58.12 224.68 57.33 225.12 L47.1 215.54 C48.51 213.84 49.35
								 211.72 49.35 209.42 C49.35 207.11 48.51 204.99 47.1 203.3 L59.99 191.21 C61.41 192.42 63.29 193.17
								 65.36 193.17 C69.77 193.17 73.36 189.8 73.36 185.67 C73.36 181.53 69.77 178.17 65.36 178.17 ZM14.67
								 189.42 C14.67 188.04 15.87 186.92 17.34 186.92 C18.81 186.92 20.01 188.04 20.01 189.42 C20.01 190.8
								 18.81 191.92 17.34 191.92 C15.87 191.92 14.67 190.8 14.67 189.42 ZM8 241.92 C5.06 241.92 2.67 239.67
								 2.67 236.92 C2.67 234.16 5.06 231.92 8 231.92 C10.95 231.92 13.34 234.16 13.34 236.92 C13.34 239.67
								 10.95 241.92 8 241.92 ZM44.02 239.42 C44.02 242.17 41.62 244.42 38.68 244.42 C35.74 244.42 33.35
								 242.17 33.35 239.42 C33.35 236.66 35.74 234.42 38.68 234.42 C41.62 234.42 44.02 236.66 44.02 239.42
								 ZM38.68 216.92 C34.27 216.92 30.68 213.55 30.68 209.42 C30.68 205.28 34.27 201.92 38.68 201.92 C43.09
								 201.92 46.68 205.28 46.68 209.42 C46.68 213.55 43.09 216.92 38.68 216.92 ZM62.69 229.42 C62.69 230.79
								 61.49 231.92 60.02 231.92 C58.55 231.92 57.35 230.79 57.35 229.42 C57.35 228.04 58.55 226.92 60.02
								 226.92 C61.49 226.92 62.69 228.04 62.69 229.42 ZM65.36 190.67 C62.42 190.67 60.02 188.42 60.02 185.67
								 C60.02 182.91 62.42 180.67 65.36 180.67 C68.3 180.67 70.69 182.91 70.69 185.67 C70.69 188.42 68.3
								 190.67 65.36 190.67 Z" class="st28"/>
				</g>
			</g>
			<g id="shape144-140" v:mID="144" v:groupContext="shape">
				<title>圆角矩形.114</title>
				<desc>Network Visualization</desc>
				<v:userDefs>
					<v:ud v:nameU="CTypeTopLeftSnip" v:prompt="" v:val="VT0(0):5"/>
					<v:ud v:nameU="CTypeTopRightSnip" v:prompt="" v:val="VT0(0):5"/>
					<v:ud v:nameU="CTypeBotLeftSnip" v:prompt="" v:val="VT0(0):5"/>
					<v:ud v:nameU="CTypeBotRightSnip" v:prompt="" v:val="VT0(0):5"/>
					<v:ud v:nameU="CornerLockHoriz" v:prompt="" v:val="VT0(1):5"/>
					<v:ud v:nameU="CornerLockVert" v:prompt="" v:val="VT0(1):5"/>
					<v:ud v:nameU="CornerLockDiag" v:prompt="" v:val="VT0(0):5"/>
					<v:ud v:nameU="TopLeftOffset" v:prompt="" v:val="VT0(0.15748031496063):24"/>
					<v:ud v:nameU="TopRightOffset" v:prompt="" v:val="VT0(0.15748031496063):24"/>
					<v:ud v:nameU="BotLeftOffset" v:prompt="" v:val="VT0(0.15748031496063):24"/>
					<v:ud v:nameU="BotRightOffset" v:prompt="" v:val="VT0(0.15748031496063):24"/>
					<v:ud v:nameU="visVersion" v:prompt="" v:val="VT0(15):26"/>
					<v:ud v:nameU="TopLeftOffset" v:prompt="" v:val="VT0(0.20472440944882):1"/>
					<v:ud v:nameU="TopRightOffset" v:prompt="" v:val="VT0(0.20472440944882):1"/>
					<v:ud v:nameU="BotLeftOffset" v:prompt="" v:val="VT0(0.20472440944882):1"/>
					<v:ud v:nameU="BotRightOffset" v:prompt="" v:val="VT0(0.20472440944882):1"/>
				</v:userDefs>
				<v:textBlock v:margins="rect(4,4,4,4)" v:tabSpace="42.5197"/>
				<v:textRect cx="73.7008" cy="225.656" width="147.41" height="42.5197"/>
				<path d="M14.74 246.92 L132.66 246.92 A14.7399 14.7399 -180 0 0 147.4 232.18 L147.4 219.14 A14.7399 14.7399 -180
							 0 0 132.66 204.4 L14.74 204.4 A14.7399 14.7399 -180 0 0 0 219.14 L0 232.18 A14.7399 14.7399 -180 0 0
							 14.74 246.92 Z" class="st29"/>
				<text x="6.62" y="229.86" class="st10" v:langID="2052"><v:paragraph v:horizAlign="1"/><v:tabList/>Network Visualization</text>			</g>
		</g>
	</g>
</svg>
